<svg xmlns="http://www.w3.org/2000/svg" xmlns:xlink="http://www.w3.org/1999/xlink" width="398" zoomAndPan="magnify" viewBox="0 0 298.5 92.999996" height="124" preserveAspectRatio="xMidYMid meet" version="1.0"><defs><g/><clipPath id="702b97dea7"><path d="M 255 73 L 298 73 L 298 75 L 255 75 Z M 255 73 " clip-rule="nonzero"/></clipPath></defs><path stroke-linecap="butt" transform="matrix(0.748746, 0, 0, 0.748746, 0, 73.380539)" fill="none" stroke-linejoin="miter" d="M 0 0.498657 L 55.775564 0.498657 " stroke="#415a77" stroke-width="1" stroke-opacity="1" stroke-miterlimit="4"/><g clip-path="url(#702b97dea7)"><path stroke-linecap="butt" transform="matrix(0.748746, 0, 0, 0.748746, 256.137979, 73.754912)" fill="none" stroke-linejoin="miter" d="M -0.00168377 0.499494 L 55.779097 0.499494 " stroke="#415a77" stroke-width="1" stroke-opacity="1" stroke-miterlimit="4"/></g><g fill="#415a77" fill-opacity="1"><g transform="translate(14.167036, 53.693396)"><g><path d="M 20.734375 0 L 14.921875 0 L 13.9375 -6.65625 L 6.859375 -6.65625 L 5.859375 0 L 0.578125 0 L 6.4375 -36.65625 L 14.875 -36.65625 Z M 7.59375 -11.625 L 13.140625 -11.625 L 10.375 -30.171875 Z M 7.59375 -11.625 "/></g></g></g><g fill="#415a77" fill-opacity="1"><g transform="translate(35.477946, 53.693396)"><g><path d="M 7.234375 -26.546875 L 7.234375 0 L 2.046875 0 L 2.046875 -36.65625 L 9.265625 -36.65625 L 15.1875 -14.71875 L 15.1875 -36.65625 L 20.328125 -36.65625 L 20.328125 0 L 14.40625 0 Z M 7.234375 -26.546875 "/></g></g></g><g fill="#415a77" fill-opacity="1"><g transform="translate(57.836077, 53.693396)"><g><path d="M 0.421875 -36.65625 L 18.21875 -36.65625 L 18.21875 -31.421875 L 12.203125 -31.421875 L 12.203125 0 L 6.4375 0 L 6.4375 -31.421875 L 0.421875 -31.421875 Z M 0.421875 -36.65625 "/></g></g></g><g fill="#415a77" fill-opacity="1"><g transform="translate(76.476578, 53.693396)"><g><path d="M 7.859375 0 L 2.09375 0 L 2.09375 -36.65625 L 7.859375 -36.65625 L 7.859375 -20.953125 L 14.40625 -20.953125 L 14.40625 -36.65625 L 20.265625 -36.65625 L 20.265625 0 L 14.40625 0 L 14.40625 -15.71875 L 7.859375 -15.71875 Z M 7.859375 0 "/></g></g></g><g fill="#415a77" fill-opacity="1"><g transform="translate(98.834709, 53.693396)"><g><path d="M 7.390625 -8.4375 C 7.390625 -7.101562 7.660156 -6.164062 8.203125 -5.625 C 8.742188 -5.082031 9.46875 -4.8125 10.375 -4.8125 C 11.28125 -4.8125 12.003906 -5.082031 12.546875 -5.625 C 13.085938 -6.164062 13.359375 -7.101562 13.359375 -8.4375 L 13.359375 -28.234375 C 13.359375 -29.554688 13.085938 -30.488281 12.546875 -31.03125 C 12.003906 -31.570312 11.28125 -31.84375 10.375 -31.84375 C 9.46875 -31.84375 8.742188 -31.570312 8.203125 -31.03125 C 7.660156 -30.488281 7.390625 -29.554688 7.390625 -28.234375 Z M 1.625 -27.859375 C 1.625 -30.828125 2.375 -33.101562 3.875 -34.6875 C 5.375 -36.28125 7.539062 -37.078125 10.375 -37.078125 C 13.195312 -37.078125 15.359375 -36.28125 16.859375 -34.6875 C 18.359375 -33.101562 19.109375 -30.828125 19.109375 -27.859375 L 19.109375 -8.796875 C 19.109375 -5.828125 18.359375 -3.546875 16.859375 -1.953125 C 15.359375 -0.367188 13.195312 0.421875 10.375 0.421875 C 7.539062 0.421875 5.375 -0.367188 3.875 -1.953125 C 2.375 -3.546875 1.625 -5.828125 1.625 -8.796875 Z M 1.625 -27.859375 "/></g></g></g><g fill="#415a77" fill-opacity="1"><g transform="translate(119.569651, 53.693396)"><g><path d="M 7.234375 -26.546875 L 7.234375 0 L 2.046875 0 L 2.046875 -36.65625 L 9.265625 -36.65625 L 15.1875 -14.71875 L 15.1875 -36.65625 L 20.328125 -36.65625 L 20.328125 0 L 14.40625 0 Z M 7.234375 -26.546875 "/></g></g></g><g fill="#415a77" fill-opacity="1"><g transform="translate(141.927782, 53.693396)"><g><path d="M 7.484375 -12.15625 L 0.203125 -36.65625 L 6.234375 -36.65625 L 10.625 -19.953125 L 15.03125 -36.65625 L 20.53125 -36.65625 L 13.25 -12.15625 L 13.25 0 L 7.484375 0 Z M 7.484375 -12.15625 "/></g></g></g><g fill="#415a77" fill-opacity="1"><g transform="translate(162.662725, 53.693396)"><g/></g></g><g fill="#415a77" fill-opacity="1"><g transform="translate(170.778678, 53.693396)"><g><path d="M 1.359375 -27.859375 C 1.359375 -30.828125 2.066406 -33.101562 3.484375 -34.6875 C 4.898438 -36.28125 7.019531 -37.078125 9.84375 -37.078125 C 12.675781 -37.078125 14.796875 -36.28125 16.203125 -34.6875 C 17.617188 -33.101562 18.328125 -30.828125 18.328125 -27.859375 L 18.328125 -26.71875 L 12.890625 -26.71875 L 12.890625 -28.234375 C 12.890625 -29.554688 12.632812 -30.488281 12.125 -31.03125 C 11.613281 -31.570312 10.90625 -31.84375 10 -31.84375 C 9.09375 -31.84375 8.382812 -31.570312 7.875 -31.03125 C 7.375 -30.488281 7.125 -29.554688 7.125 -28.234375 C 7.125 -26.972656 7.398438 -25.863281 7.953125 -24.90625 C 8.515625 -23.945312 9.210938 -23.035156 10.046875 -22.171875 C 10.890625 -21.316406 11.789062 -20.460938 12.75 -19.609375 C 13.707031 -18.753906 14.601562 -17.820312 15.4375 -16.8125 C 16.28125 -15.800781 16.984375 -14.648438 17.546875 -13.359375 C 18.109375 -12.066406 18.390625 -10.546875 18.390625 -8.796875 C 18.390625 -5.828125 17.660156 -3.546875 16.203125 -1.953125 C 14.753906 -0.367188 12.617188 0.421875 9.796875 0.421875 C 6.960938 0.421875 4.820312 -0.367188 3.375 -1.953125 C 1.925781 -3.546875 1.203125 -5.828125 1.203125 -8.796875 L 1.203125 -11.046875 L 6.65625 -11.046875 L 6.65625 -8.4375 C 6.65625 -7.101562 6.925781 -6.175781 7.46875 -5.65625 C 8.007812 -5.132812 8.734375 -4.875 9.640625 -4.875 C 10.546875 -4.875 11.269531 -5.132812 11.8125 -5.65625 C 12.351562 -6.175781 12.625 -7.101562 12.625 -8.4375 C 12.625 -9.6875 12.34375 -10.789062 11.78125 -11.75 C 11.226562 -12.71875 10.53125 -13.628906 9.6875 -14.484375 C 8.851562 -15.335938 7.953125 -16.191406 6.984375 -17.046875 C 6.023438 -17.898438 5.125 -18.832031 4.28125 -19.84375 C 3.445312 -20.863281 2.75 -22.019531 2.1875 -23.3125 C 1.632812 -24.601562 1.359375 -26.117188 1.359375 -27.859375 Z M 1.359375 -27.859375 "/></g></g></g><g fill="#415a77" fill-opacity="1"><g transform="translate(190.361676, 53.693396)"><g><path d="M 7.59375 -36.65625 L 7.59375 -8.375 C 7.59375 -7.050781 7.863281 -6.125 8.40625 -5.59375 C 8.945312 -5.070312 9.671875 -4.8125 10.578125 -4.8125 C 11.484375 -4.8125 12.207031 -5.070312 12.75 -5.59375 C 13.289062 -6.125 13.5625 -7.050781 13.5625 -8.375 L 13.5625 -36.65625 L 19.015625 -36.65625 L 19.015625 -8.75 C 19.015625 -5.78125 18.289062 -3.5 16.84375 -1.90625 C 15.394531 -0.320312 13.253906 0.46875 10.421875 0.46875 C 7.597656 0.46875 5.457031 -0.320312 4 -1.90625 C 2.550781 -3.5 1.828125 -5.78125 1.828125 -8.75 L 1.828125 -36.65625 Z M 7.59375 -36.65625 "/></g></g></g><g fill="#415a77" fill-opacity="1"><g transform="translate(211.201343, 53.693396)"><g><path d="M 14.140625 0 C 14.066406 -0.238281 13.992188 -0.460938 13.921875 -0.671875 C 13.859375 -0.890625 13.800781 -1.15625 13.75 -1.46875 C 13.695312 -1.78125 13.660156 -2.179688 13.640625 -2.671875 C 13.628906 -3.160156 13.625 -3.769531 13.625 -4.5 L 13.625 -10.265625 C 13.625 -11.972656 13.328125 -13.175781 12.734375 -13.875 C 12.140625 -14.570312 11.175781 -14.921875 9.84375 -14.921875 L 7.859375 -14.921875 L 7.859375 0 L 2.09375 0 L 2.09375 -36.65625 L 10.796875 -36.65625 C 13.796875 -36.65625 15.96875 -35.957031 17.3125 -34.5625 C 18.65625 -33.164062 19.328125 -31.054688 19.328125 -28.234375 L 19.328125 -25.34375 C 19.328125 -21.570312 18.070312 -19.09375 15.5625 -17.90625 C 17.019531 -17.3125 18.019531 -16.34375 18.5625 -15 C 19.101562 -13.65625 19.375 -12.023438 19.375 -10.109375 L 19.375 -4.453125 C 19.375 -3.546875 19.410156 -2.75 19.484375 -2.0625 C 19.554688 -1.382812 19.726562 -0.695312 20 0 Z M 7.859375 -31.421875 L 7.859375 -20.171875 L 10.109375 -20.171875 C 11.191406 -20.171875 12.035156 -20.445312 12.640625 -21 C 13.253906 -21.5625 13.5625 -22.578125 13.5625 -24.046875 L 13.5625 -27.65625 C 13.5625 -28.976562 13.328125 -29.9375 12.859375 -30.53125 C 12.390625 -31.125 11.644531 -31.421875 10.625 -31.421875 Z M 7.859375 -31.421875 "/></g></g></g><g fill="#415a77" fill-opacity="1"><g transform="translate(232.250436, 53.693396)"><g><path d="M 20.734375 0 L 14.921875 0 L 13.9375 -6.65625 L 6.859375 -6.65625 L 5.859375 0 L 0.578125 0 L 6.4375 -36.65625 L 14.875 -36.65625 Z M 7.59375 -11.625 L 13.140625 -11.625 L 10.375 -30.171875 Z M 7.59375 -11.625 "/></g></g></g><g fill="#415a77" fill-opacity="1"><g transform="translate(253.561357, 53.693396)"><g><path d="M 18.796875 -13.671875 L 18.796875 -8.796875 C 18.796875 -5.828125 18.070312 -3.546875 16.625 -1.953125 C 15.175781 -0.367188 13.039062 0.421875 10.21875 0.421875 C 7.382812 0.421875 5.242188 -0.367188 3.796875 -1.953125 C 2.347656 -3.546875 1.625 -5.828125 1.625 -8.796875 L 1.625 -27.859375 C 1.625 -30.828125 2.347656 -33.101562 3.796875 -34.6875 C 5.242188 -36.28125 7.382812 -37.078125 10.21875 -37.078125 C 13.039062 -37.078125 15.175781 -36.28125 16.625 -34.6875 C 18.070312 -33.101562 18.796875 -30.828125 18.796875 -27.859375 L 18.796875 -24.296875 L 13.359375 -24.296875 L 13.359375 -28.234375 C 13.359375 -29.554688 13.085938 -30.488281 12.546875 -31.03125 C 12.003906 -31.570312 11.28125 -31.84375 10.375 -31.84375 C 9.46875 -31.84375 8.742188 -31.570312 8.203125 -31.03125 C 7.660156 -30.488281 7.390625 -29.554688 7.390625 -28.234375 L 7.390625 -8.4375 C 7.390625 -7.101562 7.660156 -6.175781 8.203125 -5.65625 C 8.742188 -5.132812 9.46875 -4.875 10.375 -4.875 C 11.28125 -4.875 12.003906 -5.132812 12.546875 -5.65625 C 13.085938 -6.175781 13.359375 -7.101562 13.359375 -8.4375 L 13.359375 -13.671875 Z M 18.796875 -13.671875 "/></g></g></g><g fill="#415a77" fill-opacity="1"><g transform="translate(273.7727, 53.693396)"><g><path d="M 2.09375 -36.65625 L 7.859375 -36.65625 L 7.859375 0 L 2.09375 0 Z M 2.09375 -36.65625 "/></g></g></g><g fill="#415a77" fill-opacity="1"><g transform="translate(47.015619, 79.674139)"><g><path d="M 11.46875 -14.734375 L 3.46875 -14.734375 L 3.46875 -8.9375 L 11.234375 -8.9375 L 11.234375 -7.359375 L 3.46875 -7.359375 L 3.46875 0 L 1.796875 0 L 1.796875 -16.28125 L 11.46875 -16.28125 Z M 11.46875 -14.734375 "/></g></g></g><g fill="#415a77" fill-opacity="1"><g transform="translate(58.965732, 79.674139)"><g><path d="M 9.078125 -1.796875 C 8.296875 -0.453125 7.125 0.21875 5.5625 0.21875 C 4.375 0.21875 3.445312 -0.171875 2.78125 -0.953125 C 2.125 -1.734375 1.796875 -2.734375 1.796875 -3.953125 L 1.796875 -10.546875 L 3.46875 -10.546875 L 3.46875 -3.953125 C 3.46875 -3.265625 3.628906 -2.679688 3.953125 -2.203125 C 4.253906 -1.710938 4.765625 -1.46875 5.484375 -1.46875 C 6.796875 -1.46875 7.722656 -1.878906 8.265625 -2.703125 C 8.804688 -3.515625 9.078125 -4.65625 9.078125 -6.125 L 9.078125 -10.546875 L 10.75 -10.546875 L 10.75 0 L 9.078125 0 Z M 9.078125 -1.796875 "/></g></g></g><g fill="#415a77" fill-opacity="1"><g transform="translate(71.155336, 79.674139)"><g><path d="M 3.46875 0 L 1.796875 0 L 1.796875 -17.96875 L 3.46875 -17.96875 Z M 3.46875 0 "/></g></g></g><g fill="#415a77" fill-opacity="1"><g transform="translate(76.42393, 79.674139)"><g><path d="M 3.46875 0 L 1.796875 0 L 1.796875 -17.96875 L 3.46875 -17.96875 Z M 3.46875 0 "/></g></g></g><g fill="#415a77" fill-opacity="1"><g transform="translate(81.692525, 79.674139)"><g/></g></g><g fill="#415a77" fill-opacity="1"><g transform="translate(88.158524, 79.674139)"><g><path d="M 3.328125 -1.515625 C 3.742188 -1.222656 4.285156 -1.078125 4.953125 -1.078125 C 6.492188 -1.078125 7.265625 -1.648438 7.265625 -2.796875 C 7.265625 -3.472656 6.710938 -3.984375 5.609375 -4.328125 C 5.140625 -4.492188 4.644531 -4.640625 4.125 -4.765625 C 3.582031 -4.890625 3.078125 -5.054688 2.609375 -5.265625 C 2.066406 -5.523438 1.660156 -5.847656 1.390625 -6.234375 C 1.117188 -6.609375 0.984375 -7.0625 0.984375 -7.59375 C 0.984375 -8.644531 1.347656 -9.4375 2.078125 -9.96875 C 2.816406 -10.507812 3.695312 -10.78125 4.71875 -10.78125 C 5.738281 -10.78125 6.585938 -10.570312 7.265625 -10.15625 C 7.929688 -9.738281 8.382812 -8.992188 8.625 -7.921875 L 6.828125 -7.921875 C 6.640625 -8.515625 6.359375 -8.910156 5.984375 -9.109375 C 5.640625 -9.296875 5.203125 -9.390625 4.671875 -9.390625 C 4.140625 -9.390625 3.691406 -9.273438 3.328125 -9.046875 C 2.941406 -8.804688 2.75 -8.457031 2.75 -8 C 2.75 -7.519531 2.910156 -7.171875 3.234375 -6.953125 C 3.535156 -6.742188 3.921875 -6.554688 4.390625 -6.390625 C 4.847656 -6.253906 5.347656 -6.128906 5.890625 -6.015625 C 6.421875 -5.890625 6.925781 -5.710938 7.40625 -5.484375 C 8.488281 -4.972656 9.03125 -4.148438 9.03125 -3.015625 C 9.03125 -1.878906 8.625 -1.039062 7.8125 -0.5 C 7.394531 -0.226562 6.9375 -0.0195312 6.4375 0.125 C 5.957031 0.25 5.429688 0.3125 4.859375 0.3125 C 2.421875 0.3125 1.015625 -0.773438 0.640625 -2.953125 L 2.421875 -2.953125 C 2.597656 -2.265625 2.898438 -1.785156 3.328125 -1.515625 Z M 3.328125 -1.515625 "/></g></g></g><g fill="#415a77" fill-opacity="1"><g transform="translate(97.78567, 79.674139)"><g><path d="M 0.484375 -8.984375 L 0.484375 -10.546875 L 3.109375 -10.546875 L 3.109375 -14.640625 L 4.796875 -14.640625 L 4.796875 -10.546875 L 7.40625 -10.546875 L 7.40625 -8.984375 L 4.796875 -8.984375 L 4.796875 0 L 3.109375 0 L 3.109375 -8.984375 Z M 0.484375 -8.984375 "/></g></g></g><g fill="#415a77" fill-opacity="1"><g transform="translate(105.664604, 79.674139)"><g><path d="M 10.1875 -5.265625 C 10.1875 -6.285156 9.832031 -7.179688 9.125 -7.953125 C 8.40625 -8.722656 7.519531 -9.109375 6.46875 -9.109375 C 5.414062 -9.109375 4.535156 -8.722656 3.828125 -7.953125 C 3.109375 -7.179688 2.75 -6.285156 2.75 -5.265625 C 2.75 -4.242188 3.109375 -3.351562 3.828125 -2.59375 C 4.535156 -1.820312 5.414062 -1.4375 6.46875 -1.4375 C 7.519531 -1.4375 8.40625 -1.820312 9.125 -2.59375 C 9.832031 -3.351562 10.1875 -4.242188 10.1875 -5.265625 Z M 11.859375 0 L 10.1875 0 L 10.1875 -1.796875 C 10.082031 -1.671875 9.984375 -1.550781 9.890625 -1.4375 C 8.890625 -0.320312 7.660156 0.234375 6.203125 0.234375 C 4.753906 0.234375 3.53125 -0.320312 2.53125 -1.4375 C 1.5625 -2.519531 1.078125 -3.796875 1.078125 -5.265625 C 1.078125 -6.734375 1.5625 -8.015625 2.53125 -9.109375 C 3.53125 -10.222656 4.753906 -10.78125 6.203125 -10.78125 C 7.660156 -10.78125 8.890625 -10.222656 9.890625 -9.109375 C 9.984375 -8.992188 10.082031 -8.875 10.1875 -8.75 L 10.1875 -10.546875 L 11.859375 -10.546875 Z M 11.859375 0 "/></g></g></g><g fill="#415a77" fill-opacity="1"><g transform="translate(119.315036, 79.674139)"><g><path d="M 11.640625 -6.75 L 9.828125 -6.75 C 9.535156 -7.425781 9.085938 -7.972656 8.484375 -8.390625 C 7.867188 -8.796875 7.253906 -9 6.640625 -9 C 6.015625 -9 5.476562 -8.90625 5.03125 -8.71875 C 4.582031 -8.507812 4.195312 -8.238281 3.875 -7.90625 C 3.15625 -7.15625 2.796875 -6.273438 2.796875 -5.265625 C 2.796875 -4.242188 3.15625 -3.367188 3.875 -2.640625 C 4.582031 -1.890625 5.445312 -1.515625 6.46875 -1.515625 C 7.132812 -1.515625 7.753906 -1.6875 8.328125 -2.03125 C 8.890625 -2.382812 9.332031 -2.859375 9.65625 -3.453125 L 11.546875 -3.453125 C 10.953125 -1.753906 9.8125 -0.617188 8.125 -0.046875 C 7.59375 0.140625 6.992188 0.234375 6.328125 0.234375 C 5.648438 0.234375 4.984375 0.0820312 4.328125 -0.21875 C 3.679688 -0.5 3.117188 -0.894531 2.640625 -1.40625 C 1.597656 -2.5 1.078125 -3.785156 1.078125 -5.265625 C 1.078125 -6.765625 1.597656 -8.050781 2.640625 -9.125 C 3.691406 -10.207031 4.96875 -10.75 6.46875 -10.75 C 7.675781 -10.75 8.769531 -10.375 9.75 -9.625 C 10.675781 -8.90625 11.304688 -7.945312 11.640625 -6.75 Z M 11.640625 -6.75 "/></g></g></g><g fill="#415a77" fill-opacity="1"><g transform="translate(131.792011, 79.674139)"><g><path d="M 3.46875 0 L 1.796875 0 L 1.796875 -17.96875 L 3.46875 -17.96875 L 3.46875 -5.828125 L 7.328125 -10.5625 L 9.5625 -10.5625 L 5.21875 -5.4375 L 9.84375 0 L 7.609375 0 L 3.46875 -5.046875 Z M 3.46875 0 "/></g></g></g><g fill="#415a77" fill-opacity="1"><g transform="translate(141.874179, 79.674139)"><g/></g></g><g fill="#415a77" fill-opacity="1"><g transform="translate(148.340177, 79.674139)"><g><path d="M 10.1875 -5.265625 C 10.1875 -6.285156 9.832031 -7.179688 9.125 -7.953125 C 8.40625 -8.722656 7.519531 -9.109375 6.46875 -9.109375 C 5.414062 -9.109375 4.535156 -8.722656 3.828125 -7.953125 C 3.109375 -7.179688 2.75 -6.285156 2.75 -5.265625 C 2.75 -4.242188 3.109375 -3.351562 3.828125 -2.59375 C 4.535156 -1.820312 5.414062 -1.4375 6.46875 -1.4375 C 7.519531 -1.4375 8.40625 -1.820312 9.125 -2.59375 C 9.832031 -3.351562 10.1875 -4.242188 10.1875 -5.265625 Z M 11.859375 0 L 10.1875 0 L 10.1875 -1.796875 C 10.082031 -1.671875 9.984375 -1.550781 9.890625 -1.4375 C 8.890625 -0.320312 7.660156 0.234375 6.203125 0.234375 C 4.753906 0.234375 3.53125 -0.320312 2.53125 -1.4375 C 1.5625 -2.519531 1.078125 -3.796875 1.078125 -5.265625 C 1.078125 -6.734375 1.5625 -8.015625 2.53125 -9.109375 C 3.53125 -10.222656 4.753906 -10.78125 6.203125 -10.78125 C 7.660156 -10.78125 8.890625 -10.222656 9.890625 -9.109375 C 9.984375 -8.992188 10.082031 -8.875 10.1875 -8.75 L 10.1875 -17.96875 L 11.859375 -17.96875 Z M 11.859375 0 "/></g></g></g><g fill="#415a77" fill-opacity="1"><g transform="translate(161.99061, 79.674139)"><g><path d="M 12.09375 -5.515625 L 12.09375 -4.625 L 2.828125 -4.625 C 2.984375 -3.707031 3.421875 -2.960938 4.140625 -2.390625 C 4.878906 -1.804688 5.695312 -1.515625 6.59375 -1.515625 C 7.195312 -1.515625 7.773438 -1.65625 8.328125 -1.9375 C 8.878906 -2.207031 9.335938 -2.59375 9.703125 -3.09375 L 11.625 -3.09375 C 11.175781 -2.082031 10.503906 -1.289062 9.609375 -0.71875 C 8.691406 -0.125 7.769531 0.171875 6.84375 0.171875 C 5.90625 0.171875 5.109375 0.0234375 4.453125 -0.265625 C 3.785156 -0.546875 3.203125 -0.9375 2.703125 -1.4375 C 1.617188 -2.488281 1.078125 -3.78125 1.078125 -5.3125 C 1.078125 -6.832031 1.617188 -8.132812 2.703125 -9.21875 C 3.773438 -10.289062 5.070312 -10.828125 6.59375 -10.828125 C 8.0625 -10.828125 9.34375 -10.304688 10.4375 -9.265625 C 11.539062 -8.210938 12.09375 -6.960938 12.09375 -5.515625 Z M 10.328125 -6.0625 C 10.128906 -6.957031 9.679688 -7.695312 8.984375 -8.28125 C 8.273438 -8.863281 7.476562 -9.15625 6.59375 -9.15625 C 5.21875 -9.15625 4.140625 -8.539062 3.359375 -7.3125 C 3.117188 -6.925781 2.945312 -6.507812 2.84375 -6.0625 Z M 10.328125 -6.0625 "/></g></g></g><g fill="#415a77" fill-opacity="1"><g transform="translate(175.042341, 79.674139)"><g><path d="M 5.109375 1 L 0.234375 -10.546875 L 2.0625 -10.546875 L 5.109375 -2.703125 L 8.125 -10.546875 L 9.9375 -10.546875 Z M 5.109375 1 "/></g></g></g><g fill="#415a77" fill-opacity="1"><g transform="translate(185.220295, 79.674139)"><g><path d="M 12.09375 -5.515625 L 12.09375 -4.625 L 2.828125 -4.625 C 2.984375 -3.707031 3.421875 -2.960938 4.140625 -2.390625 C 4.878906 -1.804688 5.695312 -1.515625 6.59375 -1.515625 C 7.195312 -1.515625 7.773438 -1.65625 8.328125 -1.9375 C 8.878906 -2.207031 9.335938 -2.59375 9.703125 -3.09375 L 11.625 -3.09375 C 11.175781 -2.082031 10.503906 -1.289062 9.609375 -0.71875 C 8.691406 -0.125 7.769531 0.171875 6.84375 0.171875 C 5.90625 0.171875 5.109375 0.0234375 4.453125 -0.265625 C 3.785156 -0.546875 3.203125 -0.9375 2.703125 -1.4375 C 1.617188 -2.488281 1.078125 -3.78125 1.078125 -5.3125 C 1.078125 -6.832031 1.617188 -8.132812 2.703125 -9.21875 C 3.773438 -10.289062 5.070312 -10.828125 6.59375 -10.828125 C 8.0625 -10.828125 9.34375 -10.304688 10.4375 -9.265625 C 11.539062 -8.210938 12.09375 -6.960938 12.09375 -5.515625 Z M 10.328125 -6.0625 C 10.128906 -6.957031 9.679688 -7.695312 8.984375 -8.28125 C 8.273438 -8.863281 7.476562 -9.15625 6.59375 -9.15625 C 5.21875 -9.15625 4.140625 -8.539062 3.359375 -7.3125 C 3.117188 -6.925781 2.945312 -6.507812 2.84375 -6.0625 Z M 10.328125 -6.0625 "/></g></g></g><g fill="#415a77" fill-opacity="1"><g transform="translate(198.272026, 79.674139)"><g><path d="M 3.46875 0 L 1.796875 0 L 1.796875 -17.96875 L 3.46875 -17.96875 Z M 3.46875 0 "/></g></g></g><g fill="#415a77" fill-opacity="1"><g transform="translate(203.540621, 79.674139)"><g><path d="M 10.421875 -5.3125 C 10.421875 -6.375 10.046875 -7.28125 9.296875 -8.03125 C 8.546875 -8.78125 7.644531 -9.15625 6.59375 -9.15625 C 5.53125 -9.15625 4.625 -8.78125 3.875 -8.03125 C 3.125 -7.28125 2.75 -6.375 2.75 -5.3125 C 2.75 -4.28125 3.125 -3.390625 3.875 -2.640625 C 4.625 -1.890625 5.53125 -1.515625 6.59375 -1.515625 C 7.644531 -1.515625 8.546875 -1.890625 9.296875 -2.640625 C 10.046875 -3.390625 10.421875 -4.28125 10.421875 -5.3125 Z M 12.09375 -5.3125 C 12.09375 -3.78125 11.554688 -2.488281 10.484375 -1.4375 C 9.390625 -0.363281 8.09375 0.171875 6.59375 0.171875 C 5.082031 0.171875 3.785156 -0.363281 2.703125 -1.4375 C 1.617188 -2.488281 1.078125 -3.78125 1.078125 -5.3125 C 1.078125 -6.832031 1.617188 -8.132812 2.703125 -9.21875 C 3.773438 -10.289062 5.070312 -10.828125 6.59375 -10.828125 C 8.101562 -10.828125 9.398438 -10.289062 10.484375 -9.21875 C 11.554688 -8.132812 12.09375 -6.832031 12.09375 -5.3125 Z M 12.09375 -5.3125 "/></g></g></g><g fill="#415a77" fill-opacity="1"><g transform="translate(216.712096, 79.674139)"><g><path d="M 3.46875 5.984375 L 1.796875 5.984375 L 1.796875 -10.546875 L 3.46875 -10.546875 L 3.46875 -8.75 C 3.5625 -8.875 3.664062 -8.992188 3.78125 -9.109375 C 4.769531 -10.222656 5.992188 -10.78125 7.453125 -10.78125 C 8.898438 -10.78125 10.128906 -10.222656 11.140625 -9.109375 C 12.097656 -8.015625 12.578125 -6.734375 12.578125 -5.265625 C 12.578125 -3.796875 12.097656 -2.519531 11.140625 -1.4375 C 10.128906 -0.320312 8.898438 0.234375 7.453125 0.234375 C 5.992188 0.234375 4.769531 -0.320312 3.78125 -1.4375 C 3.664062 -1.550781 3.5625 -1.671875 3.46875 -1.796875 Z M 10.90625 -5.265625 C 10.90625 -6.285156 10.550781 -7.179688 9.84375 -7.953125 C 9.125 -8.722656 8.238281 -9.109375 7.1875 -9.109375 C 6.132812 -9.109375 5.253906 -8.722656 4.546875 -7.953125 C 3.828125 -7.179688 3.46875 -6.285156 3.46875 -5.265625 C 3.46875 -4.242188 3.828125 -3.351562 4.546875 -2.59375 C 5.253906 -1.820312 6.132812 -1.4375 7.1875 -1.4375 C 8.238281 -1.4375 9.125 -1.820312 9.84375 -2.59375 C 10.550781 -3.351562 10.90625 -4.242188 10.90625 -5.265625 Z M 10.90625 -5.265625 "/></g></g></g><g fill="#415a77" fill-opacity="1"><g transform="translate(230.362529, 79.674139)"><g><path d="M 12.09375 -5.515625 L 12.09375 -4.625 L 2.828125 -4.625 C 2.984375 -3.707031 3.421875 -2.960938 4.140625 -2.390625 C 4.878906 -1.804688 5.695312 -1.515625 6.59375 -1.515625 C 7.195312 -1.515625 7.773438 -1.65625 8.328125 -1.9375 C 8.878906 -2.207031 9.335938 -2.59375 9.703125 -3.09375 L 11.625 -3.09375 C 11.175781 -2.082031 10.503906 -1.289062 9.609375 -0.71875 C 8.691406 -0.125 7.769531 0.171875 6.84375 0.171875 C 5.90625 0.171875 5.109375 0.0234375 4.453125 -0.265625 C 3.785156 -0.546875 3.203125 -0.9375 2.703125 -1.4375 C 1.617188 -2.488281 1.078125 -3.78125 1.078125 -5.3125 C 1.078125 -6.832031 1.617188 -8.132812 2.703125 -9.21875 C 3.773438 -10.289062 5.070312 -10.828125 6.59375 -10.828125 C 8.0625 -10.828125 9.34375 -10.304688 10.4375 -9.265625 C 11.539062 -8.210938 12.09375 -6.960938 12.09375 -5.515625 Z M 10.328125 -6.0625 C 10.128906 -6.957031 9.679688 -7.695312 8.984375 -8.28125 C 8.273438 -8.863281 7.476562 -9.15625 6.59375 -9.15625 C 5.21875 -9.15625 4.140625 -8.539062 3.359375 -7.3125 C 3.117188 -6.925781 2.945312 -6.507812 2.84375 -6.0625 Z M 10.328125 -6.0625 "/></g></g></g><g fill="#415a77" fill-opacity="1"><g transform="translate(243.414259, 79.674139)"><g><path d="M 7.203125 -8.359375 C 6.828125 -8.710938 6.414062 -8.890625 5.96875 -8.890625 C 5.53125 -8.890625 5.160156 -8.769531 4.859375 -8.53125 C 4.546875 -8.269531 4.285156 -7.960938 4.078125 -7.609375 C 3.671875 -6.910156 3.46875 -6.128906 3.46875 -5.265625 L 3.46875 0 L 1.796875 0 L 1.796875 -10.546875 L 3.46875 -10.546875 L 3.46875 -8.359375 L 3.546875 -8.796875 C 4.109375 -10.097656 4.976562 -10.75 6.15625 -10.75 C 6.519531 -10.75 6.867188 -10.679688 7.203125 -10.546875 Z M 7.203125 -8.359375 "/></g></g></g></svg>